<?xml version="1.0" encoding="utf-8"?>
<!-- Generator: Adobe Illustrator 26.0.0, SVG Export Plug-In . SVG Version: 6.00 Build 0)  -->
<svg version="1.1" id="Layer_1" xmlns="http://www.w3.org/2000/svg" xmlns:xlink="http://www.w3.org/1999/xlink" x="0px" y="0px"
	 viewBox="0 0 31.9 32" style="enable-background:new 0 0 31.9 32;" xml:space="preserve">
<style type="text/css">
	.st0{fill:#F3BB0D;}
	.st1{fill:#FFFFFF;}
</style>
<rect class="st0" width="31.9" height="32"/>
<g>
	<path class="st1" d="M16.2,17.8c-0.3,0.8-0.8,1.5-1.4,2c-0.6,0.6-1.3,1-2.2,1.4c-0.8,0.3-1.8,0.5-2.7,0.5h-5V8.8h5
		c1,0,1.9,0.2,2.7,0.5c0.8,0.3,1.6,0.8,2.2,1.3c0.6,0.6,1.1,1.2,1.4,2c0.3,0.8,0.5,1.6,0.5,2.5v0C16.7,16.1,16.6,17,16.2,17.8z
		 M13.8,15.2c0-0.6-0.1-1.1-0.3-1.6c-0.2-0.5-0.5-0.9-0.8-1.2c-0.3-0.3-0.7-0.6-1.2-0.8c-0.5-0.2-1-0.3-1.6-0.3H7.8v7.7h2.2
		c0.6,0,1.1-0.1,1.6-0.3c0.5-0.2,0.9-0.4,1.2-0.8c0.3-0.3,0.6-0.7,0.8-1.2C13.7,16.4,13.8,15.8,13.8,15.2L13.8,15.2z"/>
	<path d="M25.5,21.6l-1.2-2.9h-5.4l-1.2,2.9h-2.9l5.5-12.9H23l5.5,12.9H25.5z M21.6,12.1l-1.7,4.1h3.4L21.6,12.1z"/>
</g>
</svg>
